<?xml version="1.0" standalone="no"?>
<!DOCTYPE svg PUBLIC "-//W3C//DTD SVG 20010904//EN"
 "http://www.w3.org/TR/2001/REC-SVG-20010904/DTD/svg10.dtd">
<svg version="1.0" xmlns="http://www.w3.org/2000/svg"
 width="500.000000pt" height="500.000000pt" viewBox="0 0 500.000000 500.000000"
 preserveAspectRatio="xMidYMid meet">

<g transform="translate(0.000000,500.000000) scale(0.100000,-0.100000)"
fill="#000000" stroke="none">
<path d="M3140 2664 c0 -257 2 -286 16 -280 9 3 22 6 30 6 12 0 14 44 14 270
0 256 -1 270 -19 280 -11 5 -24 10 -30 10 -8 0 -11 -90 -11 -286z"/>
<path d="M1886 2896 c-81 -18 -96 -38 -91 -119 3 -34 10 -135 16 -224 l12
-163 36 -9 c60 -16 152 -33 155 -29 2 1 0 127 -3 278 l-6 275 -30 2 c-16 1
-57 -4 -89 -11z"/>
<path d="M2580 2601 l0 -291 28 0 c16 0 63 3 105 6 l77 7 0 258 c0 213 -2 259
-14 259 -7 0 -34 9 -59 20 -25 11 -66 23 -91 26 l-46 7 0 -292z"/>
<path d="M2930 2615 l0 -275 43 6 c23 4 44 8 46 10 2 2 6 121 9 266 l5 263
-52 3 -51 3 0 -276z"/>
<path d="M2178 2853 c-7 -13 3 -509 11 -520 3 -6 45 -13 94 -17 l87 -7 0 270
0 271 -79 0 c-44 0 -86 3 -94 6 -8 3 -17 2 -19 -3z"/>
<path d="M1765 2254 c14 -113 29 -125 75 -63 32 44 34 42 42 -31 5 -46 39 -36
81 25 45 65 26 78 -21 15 -31 -43 -42 -38 -42 15 0 65 -27 71 -64 14 -15 -22
-30 -39 -32 -36 -3 3 -8 26 -12 53 -4 26 -13 49 -20 52 -11 3 -12 -6 -7 -44z"/>
<path d="M3194 2276 c-9 -24 3 -45 31 -56 34 -13 33 -32 -2 -24 -26 7 -27 6
-14 -10 20 -23 55 -17 59 12 3 16 -5 27 -27 40 -35 20 -41 37 -10 27 15 -5 20
-3 17 6 -7 20 -47 23 -54 5z"/>
<path d="M3146 2271 c-7 -11 12 -101 25 -115 18 -20 20 4 5 59 -16 62 -21 71
-30 56z"/>
<path d="M3099 2263 c-1 -5 -1 -15 0 -25 3 -28 -16 -29 -23 -1 -5 16 -11 22
-17 16 -13 -13 10 -123 27 -123 10 0 12 9 8 30 -8 36 11 41 20 5 7 -27 26 -35
26 -11 0 51 -36 144 -41 109z"/>
<path d="M2993 2243 c-27 -5 -28 -9 -9 -28 7 -8 17 -34 20 -60 11 -69 25 -54
23 25 -1 38 -4 69 -7 69 -3 -1 -15 -4 -27 -6z"/>
<path d="M2006 2194 c-3 -26 -6 -55 -6 -65 0 -30 17 -22 24 12 3 17 10 28 16
24 5 -3 7 -20 3 -37 -5 -23 -3 -30 8 -26 18 6 41 128 23 128 -6 0 -14 -9 -17
-20 -3 -11 -10 -20 -16 -20 -7 0 -9 10 -5 25 4 18 2 25 -9 25 -9 0 -16 -15
-21 -46z"/>
<path d="M2096 2174 c-10 -80 -9 -84 24 -84 34 0 40 15 10 23 -23 6 -17 37 6
37 19 0 18 16 -2 24 -8 3 -13 10 -9 15 3 6 12 8 20 4 9 -3 15 1 15 11 0 11 -9
16 -29 16 -26 0 -29 -3 -35 -46z"/>
<path d="M2838 2215 c-3 -3 -1 -26 3 -53 4 -26 8 -53 8 -59 1 -16 33 -17 49
-1 19 19 15 82 -6 101 -18 17 -44 22 -54 12z m52 -66 c0 -10 -4 -21 -10 -24
-5 -3 -10 -2 -10 3 0 5 -3 25 -6 43 -5 32 -5 33 10 15 9 -11 16 -28 16 -37z"/>
<path d="M2180 2177 c0 -19 -3 -49 -6 -66 -8 -37 12 -43 26 -8 l9 22 0 -22 c1
-14 7 -23 17 -23 11 0 14 6 9 20 -4 12 -1 27 5 35 6 8 10 26 8 42 -2 23 -8 29
-35 31 -31 3 -33 2 -33 -31z m42 -19 c-15 -15 -24 -6 -16 16 5 12 10 14 17 7
8 -8 8 -14 -1 -23z"/>
<path d="M2744 2188 c3 -13 6 -42 6 -65 0 -32 4 -43 15 -43 9 0 15 9 16 23 l0
22 11 -22 c17 -36 42 -30 34 8 -3 17 -6 47 -6 65 0 24 -5 34 -15 34 -8 0 -15
-8 -15 -17 -1 -17 -1 -17 -11 0 -15 26 -43 22 -35 -5z"/>
<path d="M2269 2150 c-1 -27 -2 -56 -3 -62 -1 -8 13 -14 32 -16 35 -4 44 13
12 23 -23 7 -27 35 -5 35 20 0 19 10 -2 26 -17 11 -16 13 10 23 37 14 34 21
-8 21 l-35 0 -1 -50z"/>
<path d="M2405 2191 c-3 -5 -1 -12 5 -16 5 -3 10 -28 10 -56 0 -27 5 -49 10
-49 6 0 10 23 10 50 0 28 5 50 10 50 6 0 10 7 10 15 0 17 -45 21 -55 6z"/>
<path d="M2495 2187 c-18 -14 -25 -82 -11 -106 9 -15 39 -14 54 1 19 19 15 82
-6 101 -16 14 -21 15 -37 4z m31 -73 c-4 -14 -11 -22 -16 -19 -11 7 -13 58 -3
69 12 11 25 -24 19 -50z"/>
<path d="M2620 2135 c0 -51 3 -65 15 -65 10 0 15 10 15 30 0 17 5 30 10 30 6
0 10 5 10 10 0 6 -7 10 -15 10 -22 0 -18 17 5 23 31 8 24 27 -10 27 l-30 0 0
-65z"/>
<path d="M2700 2166 c0 -47 11 -96 21 -96 10 0 12 73 3 108 -9 33 -24 26 -24
-12z"/>
<path d="M3158 1973 c-12 -3 -18 -14 -18 -35 0 -17 1 -29 3 -27 2 2 14 19 26
37 22 32 22 34 -11 25z"/>
<path d="M1863 1909 c4 -35 9 -104 13 -152 9 -111 19 -125 98 -136 l59 -8 -5
160 c-4 114 -9 161 -18 167 -7 5 -38 11 -68 15 -30 4 -62 9 -70 13 -13 4 -14
-4 -9 -59z"/>
<path d="M2973 1943 l-33 -4 0 -145 c0 -79 2 -144 4 -144 2 0 20 22 40 49 36
48 36 50 36 150 0 55 -3 100 -7 99 -5 0 -23 -3 -40 -5z"/>
<path d="M2193 1906 c4 -10 7 -84 7 -165 l0 -148 85 -9 85 -9 0 167 0 168 -29
0 c-15 0 -56 3 -91 7 -58 6 -63 5 -57 -11z"/>
<path d="M2658 1913 l-78 -4 0 -178 0 -178 38 -6 c20 -4 67 -9 105 -13 l67 -7
0 197 0 196 -27 -2 c-16 -1 -63 -4 -105 -5z"/>
</g>
</svg>
